<mxfile host="Electron" modified="2023-09-25T07:45:46.491Z" agent="Mozilla/5.0 (Windows NT 10.0; Win64; x64) AppleWebKit/537.36 (KHTML, like Gecko) draw.io/21.6.8 Chrome/114.0.5735.289 Electron/25.5.0 Safari/537.36" etag="cDX68mBHJPgACPqgciYR" version="21.6.8" type="device">
  <diagram name="Page-1" id="nXfzeGGXP-JbIDMUMc9M">
    <mxGraphModel dx="1036" dy="623" grid="1" gridSize="10" guides="1" tooltips="1" connect="1" arrows="1" fold="1" page="1" pageScale="1" pageWidth="850" pageHeight="1100" math="0" shadow="0">
      <root>
        <mxCell id="0" />
        <mxCell id="1" parent="0" />
        <mxCell id="EhpYNCbBLxtHXb62aS21-37" value="" style="shape=umlLifeline;perimeter=lifelinePerimeter;whiteSpace=wrap;html=1;container=1;dropTarget=0;collapsible=0;recursiveResize=0;outlineConnect=0;portConstraint=eastwest;newEdgeStyle={&quot;edgeStyle&quot;:&quot;elbowEdgeStyle&quot;,&quot;elbow&quot;:&quot;vertical&quot;,&quot;curved&quot;:0,&quot;rounded&quot;:0};participant=umlActor;" parent="1" vertex="1">
          <mxGeometry x="120" y="120" width="20" height="450" as="geometry" />
        </mxCell>
        <mxCell id="EhpYNCbBLxtHXb62aS21-40" value="Customer" style="text;html=1;align=center;verticalAlign=middle;resizable=0;points=[];autosize=1;strokeColor=none;fillColor=none;" parent="1" vertex="1">
          <mxGeometry x="90" y="150" width="80" height="30" as="geometry" />
        </mxCell>
        <mxCell id="EhpYNCbBLxtHXb62aS21-41" value=":BanglaBasket" style="html=1;whiteSpace=wrap;" parent="1" vertex="1">
          <mxGeometry x="310" y="120" width="110" height="40" as="geometry" />
        </mxCell>
        <mxCell id="EhpYNCbBLxtHXb62aS21-42" value="Database" style="html=1;whiteSpace=wrap;" parent="1" vertex="1">
          <mxGeometry x="540" y="120" width="110" height="40" as="geometry" />
        </mxCell>
        <mxCell id="EhpYNCbBLxtHXb62aS21-43" value="Payment Getway" style="html=1;whiteSpace=wrap;" parent="1" vertex="1">
          <mxGeometry x="750" y="120" width="110" height="40" as="geometry" />
        </mxCell>
        <mxCell id="EhpYNCbBLxtHXb62aS21-44" value="" style="endArrow=none;dashed=1;html=1;strokeWidth=1;rounded=0;entryX=0.5;entryY=1;entryDx=0;entryDy=0;" parent="1" target="EhpYNCbBLxtHXb62aS21-41" edge="1">
          <mxGeometry width="50" height="50" relative="1" as="geometry">
            <mxPoint x="360" y="560" as="sourcePoint" />
            <mxPoint x="380" y="240" as="targetPoint" />
          </mxGeometry>
        </mxCell>
        <mxCell id="EhpYNCbBLxtHXb62aS21-53" value="" style="endArrow=none;dashed=1;html=1;strokeWidth=1;rounded=0;entryX=0.5;entryY=1;entryDx=0;entryDy=0;" parent="1" edge="1">
          <mxGeometry width="50" height="50" relative="1" as="geometry">
            <mxPoint x="593" y="550" as="sourcePoint" />
            <mxPoint x="592.5" y="159" as="targetPoint" />
          </mxGeometry>
        </mxCell>
        <mxCell id="bfCV74joALWYp8nJCY4N-1" value="" style="endArrow=none;dashed=1;html=1;dashPattern=1 3;strokeWidth=2;rounded=0;fontFamily=Helvetica;fontSize=12;fontColor=default;entryX=0.5;entryY=1;entryDx=0;entryDy=0;" edge="1" parent="1" target="EhpYNCbBLxtHXb62aS21-43">
          <mxGeometry width="50" height="50" relative="1" as="geometry">
            <mxPoint x="800" y="578" as="sourcePoint" />
            <mxPoint x="780" y="300" as="targetPoint" />
          </mxGeometry>
        </mxCell>
        <mxCell id="bfCV74joALWYp8nJCY4N-2" value="" style="html=1;points=[];perimeter=orthogonalPerimeter;outlineConnect=0;targetShapes=umlLifeline;portConstraint=eastwest;newEdgeStyle={&quot;edgeStyle&quot;:&quot;elbowEdgeStyle&quot;,&quot;elbow&quot;:&quot;vertical&quot;,&quot;curved&quot;:0,&quot;rounded&quot;:0};" vertex="1" parent="1">
          <mxGeometry x="122" y="190" width="10" height="320" as="geometry" />
        </mxCell>
        <mxCell id="bfCV74joALWYp8nJCY4N-4" style="edgeStyle=elbowEdgeStyle;rounded=0;orthogonalLoop=1;jettySize=auto;html=1;elbow=vertical;curved=0;" edge="1" parent="1" source="bfCV74joALWYp8nJCY4N-5">
          <mxGeometry relative="1" as="geometry">
            <mxPoint x="587" y="215" as="targetPoint" />
          </mxGeometry>
        </mxCell>
        <mxCell id="bfCV74joALWYp8nJCY4N-5" value="" style="html=1;points=[];perimeter=orthogonalPerimeter;outlineConnect=0;targetShapes=umlLifeline;portConstraint=eastwest;newEdgeStyle={&quot;edgeStyle&quot;:&quot;elbowEdgeStyle&quot;,&quot;elbow&quot;:&quot;vertical&quot;,&quot;curved&quot;:0,&quot;rounded&quot;:0};" vertex="1" parent="1">
          <mxGeometry x="357" y="200" width="10" height="30" as="geometry" />
        </mxCell>
        <mxCell id="bfCV74joALWYp8nJCY4N-6" style="edgeStyle=elbowEdgeStyle;rounded=0;orthogonalLoop=1;jettySize=auto;html=1;elbow=vertical;curved=0;" edge="1" parent="1">
          <mxGeometry relative="1" as="geometry">
            <mxPoint x="132" y="215" as="sourcePoint" />
            <mxPoint x="357" y="215" as="targetPoint" />
          </mxGeometry>
        </mxCell>
        <mxCell id="bfCV74joALWYp8nJCY4N-7" value="check tottal pay amount" style="text;html=1;align=center;verticalAlign=middle;resizable=0;points=[];autosize=1;strokeColor=none;fillColor=none;" vertex="1" parent="1">
          <mxGeometry x="162" y="190" width="150" height="30" as="geometry" />
        </mxCell>
        <mxCell id="bfCV74joALWYp8nJCY4N-8" style="edgeStyle=elbowEdgeStyle;rounded=0;orthogonalLoop=1;jettySize=auto;html=1;elbow=vertical;curved=0;" edge="1" parent="1">
          <mxGeometry relative="1" as="geometry">
            <mxPoint x="132" y="256" as="sourcePoint" />
            <mxPoint x="357" y="256" as="targetPoint" />
          </mxGeometry>
        </mxCell>
        <mxCell id="bfCV74joALWYp8nJCY4N-9" value="add shiping address()" style="text;html=1;align=center;verticalAlign=middle;resizable=0;points=[];autosize=1;strokeColor=none;fillColor=none;" vertex="1" parent="1">
          <mxGeometry x="162" y="230" width="140" height="30" as="geometry" />
        </mxCell>
        <mxCell id="bfCV74joALWYp8nJCY4N-10" style="edgeStyle=elbowEdgeStyle;rounded=0;orthogonalLoop=1;jettySize=auto;html=1;elbow=vertical;curved=0;" edge="1" parent="1">
          <mxGeometry relative="1" as="geometry">
            <mxPoint x="366" y="261" as="sourcePoint" />
            <mxPoint x="591" y="261" as="targetPoint" />
          </mxGeometry>
        </mxCell>
        <mxCell id="bfCV74joALWYp8nJCY4N-11" style="edgeStyle=elbowEdgeStyle;rounded=0;orthogonalLoop=1;jettySize=auto;html=1;elbow=vertical;curved=0;" edge="1" parent="1">
          <mxGeometry relative="1" as="geometry">
            <mxPoint x="356" y="289" as="sourcePoint" />
            <mxPoint x="126.5" y="289" as="targetPoint" />
          </mxGeometry>
        </mxCell>
        <mxCell id="bfCV74joALWYp8nJCY4N-12" style="edgeStyle=elbowEdgeStyle;rounded=0;orthogonalLoop=1;jettySize=auto;html=1;elbow=vertical;curved=0;" edge="1" parent="1">
          <mxGeometry relative="1" as="geometry">
            <mxPoint x="587" y="352" as="targetPoint" />
            <mxPoint x="366" y="352" as="sourcePoint" />
          </mxGeometry>
        </mxCell>
        <mxCell id="bfCV74joALWYp8nJCY4N-13" style="edgeStyle=elbowEdgeStyle;rounded=0;orthogonalLoop=1;jettySize=auto;html=1;elbow=vertical;curved=0;" edge="1" parent="1">
          <mxGeometry relative="1" as="geometry">
            <mxPoint x="366" y="448" as="sourcePoint" />
            <mxPoint x="796" y="448" as="targetPoint" />
          </mxGeometry>
        </mxCell>
        <mxCell id="bfCV74joALWYp8nJCY4N-14" value="" style="html=1;points=[];perimeter=orthogonalPerimeter;outlineConnect=0;targetShapes=umlLifeline;portConstraint=eastwest;newEdgeStyle={&quot;edgeStyle&quot;:&quot;elbowEdgeStyle&quot;,&quot;elbow&quot;:&quot;vertical&quot;,&quot;curved&quot;:0,&quot;rounded&quot;:0};" vertex="1" parent="1">
          <mxGeometry x="356" y="237" width="10" height="273" as="geometry" />
        </mxCell>
        <mxCell id="bfCV74joALWYp8nJCY4N-15" value="" style="html=1;points=[];perimeter=orthogonalPerimeter;outlineConnect=0;targetShapes=umlLifeline;portConstraint=eastwest;newEdgeStyle={&quot;edgeStyle&quot;:&quot;elbowEdgeStyle&quot;,&quot;elbow&quot;:&quot;vertical&quot;,&quot;curved&quot;:0,&quot;rounded&quot;:0};" vertex="1" parent="1">
          <mxGeometry x="591" y="190" width="10" height="190" as="geometry" />
        </mxCell>
        <mxCell id="bfCV74joALWYp8nJCY4N-16" value="store tottal pay()" style="text;html=1;align=center;verticalAlign=middle;resizable=0;points=[];autosize=1;strokeColor=none;fillColor=none;" vertex="1" parent="1">
          <mxGeometry x="382" y="188" width="110" height="30" as="geometry" />
        </mxCell>
        <mxCell id="bfCV74joALWYp8nJCY4N-17" value="store shiping address" style="text;html=1;align=center;verticalAlign=middle;resizable=0;points=[];autosize=1;strokeColor=none;fillColor=none;" vertex="1" parent="1">
          <mxGeometry x="377" y="228" width="140" height="30" as="geometry" />
        </mxCell>
        <mxCell id="bfCV74joALWYp8nJCY4N-18" value="select payment option" style="text;html=1;align=center;verticalAlign=middle;resizable=0;points=[];autosize=1;strokeColor=none;fillColor=none;" vertex="1" parent="1">
          <mxGeometry x="170" y="262" width="140" height="30" as="geometry" />
        </mxCell>
        <mxCell id="bfCV74joALWYp8nJCY4N-19" value="" style="html=1;verticalAlign=bottom;endArrow=open;dashed=1;endSize=8;edgeStyle=elbowEdgeStyle;elbow=vertical;curved=0;rounded=0;" edge="1" parent="1">
          <mxGeometry y="-50" relative="1" as="geometry">
            <mxPoint x="592" y="290" as="sourcePoint" />
            <mxPoint x="367" y="290" as="targetPoint" />
            <mxPoint as="offset" />
            <Array as="points">
              <mxPoint x="387" y="290.5" />
            </Array>
          </mxGeometry>
        </mxCell>
        <mxCell id="bfCV74joALWYp8nJCY4N-20" value="return result()" style="text;html=1;align=center;verticalAlign=middle;resizable=0;points=[];autosize=1;strokeColor=none;fillColor=none;" vertex="1" parent="1">
          <mxGeometry x="407" y="268" width="100" height="30" as="geometry" />
        </mxCell>
        <mxCell id="bfCV74joALWYp8nJCY4N-21" style="edgeStyle=elbowEdgeStyle;rounded=0;orthogonalLoop=1;jettySize=auto;html=1;elbow=vertical;curved=0;" edge="1" parent="1">
          <mxGeometry relative="1" as="geometry">
            <mxPoint x="132" y="341" as="sourcePoint" />
            <mxPoint x="356" y="341" as="targetPoint" />
          </mxGeometry>
        </mxCell>
        <mxCell id="bfCV74joALWYp8nJCY4N-22" value="cash on deleivery" style="text;html=1;align=center;verticalAlign=middle;resizable=0;points=[];autosize=1;strokeColor=none;fillColor=none;" vertex="1" parent="1">
          <mxGeometry x="179" y="317" width="120" height="30" as="geometry" />
        </mxCell>
        <mxCell id="bfCV74joALWYp8nJCY4N-23" value="store data()" style="text;html=1;align=center;verticalAlign=middle;resizable=0;points=[];autosize=1;strokeColor=none;fillColor=none;" vertex="1" parent="1">
          <mxGeometry x="427" y="330" width="80" height="30" as="geometry" />
        </mxCell>
        <mxCell id="bfCV74joALWYp8nJCY4N-24" value="" style="html=1;verticalAlign=bottom;endArrow=open;dashed=1;endSize=8;edgeStyle=elbowEdgeStyle;elbow=vertical;curved=0;rounded=0;" edge="1" parent="1">
          <mxGeometry y="-50" relative="1" as="geometry">
            <mxPoint x="592" y="376" as="sourcePoint" />
            <mxPoint x="367" y="376" as="targetPoint" />
            <mxPoint as="offset" />
            <Array as="points">
              <mxPoint x="387" y="376.5" />
            </Array>
          </mxGeometry>
        </mxCell>
        <mxCell id="bfCV74joALWYp8nJCY4N-25" value="returnt result()" style="text;html=1;align=center;verticalAlign=middle;resizable=0;points=[];autosize=1;strokeColor=none;fillColor=none;" vertex="1" parent="1">
          <mxGeometry x="417" y="351" width="100" height="30" as="geometry" />
        </mxCell>
        <mxCell id="bfCV74joALWYp8nJCY4N-26" value="" style="html=1;verticalAlign=bottom;endArrow=open;dashed=1;endSize=8;edgeStyle=elbowEdgeStyle;elbow=vertical;curved=0;rounded=0;" edge="1" parent="1">
          <mxGeometry y="-50" relative="1" as="geometry">
            <mxPoint x="355.5" y="388" as="sourcePoint" />
            <mxPoint x="130.5" y="388" as="targetPoint" />
            <mxPoint as="offset" />
            <Array as="points">
              <mxPoint x="150.5" y="388.5" />
            </Array>
          </mxGeometry>
        </mxCell>
        <mxCell id="bfCV74joALWYp8nJCY4N-27" value="display order successful()" style="text;html=1;align=center;verticalAlign=middle;resizable=0;points=[];autosize=1;strokeColor=none;fillColor=none;" vertex="1" parent="1">
          <mxGeometry x="147" y="361" width="160" height="30" as="geometry" />
        </mxCell>
        <mxCell id="bfCV74joALWYp8nJCY4N-28" value="if select cash on delivery" style="shape=umlFrame;whiteSpace=wrap;html=1;pointerEvents=0;width=145;height=18;" vertex="1" parent="1">
          <mxGeometry x="112" y="308" width="708" height="98" as="geometry" />
        </mxCell>
        <mxCell id="bfCV74joALWYp8nJCY4N-29" value="else select cash on delivery" style="shape=umlFrame;whiteSpace=wrap;html=1;pointerEvents=0;width=165;height=20;" vertex="1" parent="1">
          <mxGeometry x="112" y="407" width="708" height="120" as="geometry" />
        </mxCell>
        <mxCell id="bfCV74joALWYp8nJCY4N-30" style="edgeStyle=elbowEdgeStyle;rounded=0;orthogonalLoop=1;jettySize=auto;html=1;elbow=vertical;curved=0;" edge="1" parent="1">
          <mxGeometry relative="1" as="geometry">
            <mxPoint x="134" y="451" as="sourcePoint" />
            <mxPoint x="358" y="451" as="targetPoint" />
          </mxGeometry>
        </mxCell>
        <mxCell id="bfCV74joALWYp8nJCY4N-31" value="online payment" style="text;html=1;align=center;verticalAlign=middle;resizable=0;points=[];autosize=1;strokeColor=none;fillColor=none;" vertex="1" parent="1">
          <mxGeometry x="191" y="427" width="100" height="30" as="geometry" />
        </mxCell>
        <mxCell id="bfCV74joALWYp8nJCY4N-32" value="" style="html=1;verticalAlign=bottom;endArrow=open;dashed=1;endSize=8;edgeStyle=elbowEdgeStyle;elbow=vertical;curved=0;rounded=0;exitX=0.1;exitY=0.963;exitDx=0;exitDy=0;exitPerimeter=0;" edge="1" parent="1" source="bfCV74joALWYp8nJCY4N-34" target="bfCV74joALWYp8nJCY4N-14">
          <mxGeometry y="-50" relative="1" as="geometry">
            <mxPoint x="845" y="480" as="sourcePoint" />
            <mxPoint x="620" y="480" as="targetPoint" />
            <mxPoint as="offset" />
            <Array as="points">
              <mxPoint x="640" y="480.5" />
            </Array>
          </mxGeometry>
        </mxCell>
        <mxCell id="bfCV74joALWYp8nJCY4N-33" value="" style="endArrow=none;dashed=1;html=1;rounded=0;entryX=0.5;entryY=1;entryDx=0;entryDy=0;" edge="1" parent="1" target="bfCV74joALWYp8nJCY4N-34">
          <mxGeometry width="50" height="50" relative="1" as="geometry">
            <mxPoint x="801" y="550" as="sourcePoint" />
            <mxPoint x="803" y="-420" as="targetPoint" />
          </mxGeometry>
        </mxCell>
        <mxCell id="bfCV74joALWYp8nJCY4N-34" value="" style="html=1;points=[];perimeter=orthogonalPerimeter;outlineConnect=0;targetShapes=umlLifeline;portConstraint=eastwest;newEdgeStyle={&quot;edgeStyle&quot;:&quot;elbowEdgeStyle&quot;,&quot;elbow&quot;:&quot;vertical&quot;,&quot;curved&quot;:0,&quot;rounded&quot;:0};" vertex="1" parent="1">
          <mxGeometry x="796" y="416" width="10" height="80" as="geometry" />
        </mxCell>
        <mxCell id="bfCV74joALWYp8nJCY4N-35" value="Payment Varification()" style="text;html=1;align=center;verticalAlign=middle;resizable=0;points=[];autosize=1;strokeColor=none;fillColor=none;" vertex="1" parent="1">
          <mxGeometry x="647" y="418" width="140" height="30" as="geometry" />
        </mxCell>
        <mxCell id="bfCV74joALWYp8nJCY4N-36" value="return success message()" style="text;html=1;align=center;verticalAlign=middle;resizable=0;points=[];autosize=1;strokeColor=none;fillColor=none;" vertex="1" parent="1">
          <mxGeometry x="627" y="457" width="160" height="30" as="geometry" />
        </mxCell>
        <mxCell id="bfCV74joALWYp8nJCY4N-37" value="" style="html=1;verticalAlign=bottom;endArrow=open;dashed=1;endSize=8;edgeStyle=elbowEdgeStyle;elbow=vertical;curved=0;rounded=0;" edge="1" parent="1">
          <mxGeometry y="-50" relative="1" as="geometry">
            <mxPoint x="354.5" y="499" as="sourcePoint" />
            <mxPoint x="129.5" y="499" as="targetPoint" />
            <mxPoint as="offset" />
            <Array as="points">
              <mxPoint x="149.5" y="499.5" />
            </Array>
          </mxGeometry>
        </mxCell>
        <mxCell id="bfCV74joALWYp8nJCY4N-38" value="display order successful()" style="text;html=1;align=center;verticalAlign=middle;resizable=0;points=[];autosize=1;strokeColor=none;fillColor=none;" vertex="1" parent="1">
          <mxGeometry x="146" y="471" width="160" height="30" as="geometry" />
        </mxCell>
        <mxCell id="bfCV74joALWYp8nJCY4N-39" value="&lt;font style=&quot;font-size: 16px;&quot;&gt;Figure:Payment Sequance Diagram&lt;/font&gt;" style="text;html=1;align=center;verticalAlign=middle;resizable=0;points=[];autosize=1;strokeColor=none;fillColor=none;fontSize=12;fontFamily=Helvetica;fontColor=default;" vertex="1" parent="1">
          <mxGeometry x="327" y="598" width="280" height="30" as="geometry" />
        </mxCell>
        <mxCell id="bfCV74joALWYp8nJCY4N-40" value="" style="swimlane;startSize=0;pointerEvents=0;strokeColor=default;fontFamily=Helvetica;fontSize=12;fontColor=default;fillColor=default;html=1;" vertex="1" parent="1">
          <mxGeometry x="70" y="68" width="820" height="602" as="geometry" />
        </mxCell>
      </root>
    </mxGraphModel>
  </diagram>
</mxfile>
